<svg width="29" height="29" viewBox="0 0 29 29" fill="none" xmlns="http://www.w3.org/2000/svg">
<path fill-rule="evenodd" clip-rule="evenodd" d="M2.37988 4.83384C2.37988 4.16642 2.91268 3.62537 3.56992 3.62537H4.29145C5.64566 3.62537 6.83838 4.39504 7.44262 5.54549H23.6755C24.7962 5.54549 25.6397 6.58192 25.4286 7.69959L23.7534 16.5707L23.7445 16.6059C23.3413 18.2118 21.9171 19.3355 20.2852 19.3355H9.98858C8.16671 19.3355 6.63711 17.9424 6.43954 16.1032L5.47447 7.11972C5.47073 7.08495 5.46557 7.05066 5.45904 7.01691C5.45695 7.00733 5.45497 6.99772 5.4531 6.98806C5.33371 6.44139 4.85444 6.04231 4.29145 6.04231H3.56992C2.91268 6.04231 2.37988 5.50126 2.37988 4.83384ZM7.95919 7.96243L8.80557 15.8411C8.87143 16.4542 9.3813 16.9185 9.98858 16.9185H20.2852C20.8192 16.9185 21.2865 16.5575 21.4306 16.0379L22.9556 7.96243H7.95919ZM5.94998 22.9609C5.94998 21.626 7.01558 20.5439 8.33005 20.5439C9.64453 20.5439 10.7101 21.626 10.7101 22.9609C10.7101 24.2957 9.64453 25.3778 8.33005 25.3778C7.01558 25.3778 5.94998 24.2957 5.94998 22.9609ZM19.0404 22.9609C19.0404 21.626 20.1059 20.5439 21.4204 20.5439C22.7349 20.5439 23.8005 21.626 23.8005 22.9609C23.8005 24.2957 22.7349 25.3778 21.4204 25.3778C20.1059 25.3778 19.0404 24.2957 19.0404 22.9609Z" fill="#34306F"/>
</svg>
